<svg width="191" height="205" xmlns="http://www.w3.org/2000/svg">
 <style type="text/css">.st0{fill:#DD0031;}
	.st1{fill:#C3002F;}
	.st2{fill:#FFFFFF;}</style>

 <g>
  <title>Layer 1</title>
  <g id="svg_1">
   <polygon id="svg_2" points="95,3 95,3 95,3 1.8999996185302734,36.20000076293945 16.099998474121094,159.3000030517578 95,203 95,203 95,203 173.89999389648438,159.3000030517578 188.10000610351562,36.20000076293945 " class="st0"/>
   <polygon id="svg_3" points="95,3 95,25.200000762939453 95,25.099998474121094 95,126.39999389648438 95,126.39999389648438 95,203 95,203 173.89999389648438,159.3000030517578 188.10000610351562,36.20000076293945 95,3 " class="st1"/>
   <path id="svg_4" d="m95,25.1l-58.2,130.5l0,0l21.7,0l0,0l11.7,-29.2l49.4,0l11.7,29.2l0,0l21.7,0l0,0l-58,-130.5l0,0l0,0l0,0l0,0zm17,83.3l-34,0l17,-40.9l17,40.9z" class="st2"/>
  </g>
 </g>
</svg>